# xmcd
#
# Track frame offsets: 
#        150
#        16733
#        34504
#        50246
#        63195
#        77203
#        92425
#        106556
#        125646
#        145429
#        166886
#
# Disc length: 2354 seconds
#
# Revision: 0
# Processed by: cddbd v1.5.2PL0 Copyright (c) Steve Scherf et al.
# Submitted via: ExactAudioCopy v0.95a5
#
DISCID=8509300b
DTITLE=Sara Petite - Tiger Mountain
DYEAR=2006
DGENRE=Folk
TTITLE0=Coming Home
TTITLE1=I'm Leaving
TTITLE2=Shine Some Heaven
TTITLE3=Ruby
TTITLE4=Huckleberries
TTITLE5=Standing on the Corner
TTITLE6=Look What You're Doing
TTITLE7=Gypsy Friend
TTITLE8=Don't Let the Sun Set
TTITLE9=Old Friend
TTITLE10=Tiger Mountain
EXTD=
EXTT0=
EXTT1=
EXTT2=
EXTT3=
EXTT4=
EXTT5=
EXTT6=
EXTT7=
EXTT8=
EXTT9=
EXTT10=
PLAYORDER=
